<?xml version="1.0" encoding="UTF-8" standalone="no"?>
<!-- Generator: Adobe Illustrator 16.0.0, SVG Export Plug-In . SVG Version: 6.00 Build 0)  -->

<svg
   xmlns:dc="http://purl.org/dc/elements/1.1/"
   xmlns:cc="http://creativecommons.org/ns#"
   xmlns:rdf="http://www.w3.org/1999/02/22-rdf-syntax-ns#"
   xmlns:svg="http://www.w3.org/2000/svg"
   xmlns="http://www.w3.org/2000/svg"
   xmlns:sodipodi="http://sodipodi.sourceforge.net/DTD/sodipodi-0.dtd"
   xmlns:inkscape="http://www.inkscape.org/namespaces/inkscape"
   version="1.1"
   id="Capa_1"
   x="0px"
   y="0px"
   width="49.632px"
   height="49.633px"
   viewBox="0 0 49.632 49.633"
   style="enable-background:new 0 0 49.632 49.633;"
   xml:space="preserve"
   inkscape:version="0.91 r13725"
   sodipodi:docname="vintage-oval-key-shape-with-floral-design.svg"><metadata
     id="metadata55"><rdf:RDF><cc:Work
         rdf:about=""><dc:format>image/svg+xml</dc:format><dc:type
           rdf:resource="http://purl.org/dc/dcmitype/StillImage" /></cc:Work></rdf:RDF></metadata><defs
     id="defs53" /><sodipodi:namedview
     pagecolor="#ffffff"
     bordercolor="#666666"
     borderopacity="1"
     objecttolerance="10"
     gridtolerance="10"
     guidetolerance="10"
     inkscape:pageopacity="0"
     inkscape:pageshadow="2"
     inkscape:window-width="1916"
     inkscape:window-height="1005"
     id="namedview51"
     showgrid="false"
     inkscape:zoom="4.754901"
     inkscape:cx="24.816"
     inkscape:cy="24.8165"
     inkscape:window-x="0"
     inkscape:window-y="54"
     inkscape:window-maximized="0"
     inkscape:current-layer="Capa_1" /><g
     id="g3"
     transform="matrix(0,1,-1,0,49.632,-6.8594993e-8)"><g
       id="g5"><path
         d="m 26.543,32.12 c 0.664,-0.025 1.196,-0.563 1.196,-1.234 0,-0.544 -0.354,-0.993 -0.84,-1.163 l -3.949,0 c -0.526,0.145 -0.926,0.59 -0.926,1.163 0,0.593 0.421,1.063 0.976,1.19 0.003,0.017 0.006,0.035 0.009,0.054 l 3.532,0 c 0.001,-0.004 0.002,-0.006 0.002,-0.01 z"
         id="path7"
         inkscape:connector-curvature="0" /><path
         d="m 29.553,43.166 -1.761,0 0,-1.266 -1.842,0 0.142,-6.93 c 0,0 0.304,-1.291 0.435,-2.679 l -3.489,0 c 0.203,1.269 0.598,2.679 0.598,2.679 l 0.226,14.662 1.936,0 0.021,-0.982 1.978,0 0,-1.06 1.761,0 0,1.061 3.053,0 0,-2.398 -1.023,0 0,-1.761 1.023,0 0,-2.592 -3.053,0 0,1.266 -0.005,0 z"
         id="path9"
         inkscape:connector-curvature="0" /><path
         d="m 25.057,15.447 -0.177,0.157 c 0.007,0.142 -0.063,0.32 -0.146,0.515 -0.118,0.289 -0.274,0.589 -0.227,0.886 0.068,-0.032 0.109,-0.014 0.188,-0.075 0.011,0.09 0.028,0.185 0.05,0.282 0.079,0.352 0.233,0.737 0.503,1.022 0.134,0.141 0.296,0.262 0.489,0.331 0.191,0.062 0.414,0.079 0.66,0.034 -0.356,-0.421 -0.854,-0.872 -1.158,-1.42 -0.308,-0.533 -0.422,-1.113 -0.182,-1.732 z"
         id="path11"
         inkscape:connector-curvature="0" /><path
         d="M 24.184,4.282 24.362,4.125 C 24.354,3.983 24.424,3.805 24.507,3.61 24.626,3.321 24.782,3.021 24.734,2.724 24.667,2.757 24.625,2.738 24.546,2.799 24.535,2.709 24.518,2.614 24.496,2.516 24.416,2.165 24.263,1.78 23.992,1.495 23.858,1.353 23.697,1.232 23.504,1.163 23.312,1.101 23.089,1.084 22.843,1.129 23.2,1.55 23.696,2.001 24,2.549 c 0.311,0.535 0.424,1.114 0.184,1.733 z"
         id="path13"
         inkscape:connector-curvature="0" /><path
         d="M 22.401,4.721 C 22.616,4.62 22.825,4.479 22.972,4.403 23.177,4.318 23.368,4.259 23.6,4.331 c 0.195,0.057 0.253,0.411 0.457,0.157 L 24.003,4.34 C 23.683,3.667 23.456,3.429 22.831,3.897 22.641,4.059 22.483,4.216 22.317,4.345 22.106,4.5 21.899,4.665 21.585,4.724 21.82,4.97 22.109,4.857 22.401,4.721 Z"
         id="path15"
         inkscape:connector-curvature="0" /><path
         d="M 28.611,5.067 28.832,5.006 C 28.889,4.875 29.025,4.745 29.186,4.608 29.415,4.407 29.694,4.192 29.78,3.911 29.704,3.912 29.674,3.883 29.577,3.899 29.606,3.813 29.635,3.72 29.657,3.622 29.741,3.27 29.772,2.853 29.651,2.474 29.532,2.102 29.247,1.787 28.755,1.645 c 0.147,0.538 0.401,1.176 0.446,1.78 0.046,0.624 -0.115,1.195 -0.59,1.642 z"
         id="path17"
         inkscape:connector-curvature="0" /><path
         d="M 24.817,0 C 18.097,0 12.63,4.438 12.63,9.892 c 0,4.882 4.381,8.938 10.116,9.739 -0.27,0.27 -0.428,0.596 -0.428,0.946 0,0.643 0.535,1.193 1.315,1.479 l 0,5.105 c 0,0 -0.33,1.208 -0.543,2.396 l 3.39,0 C 26.334,28.27 26.091,27.1 26.091,27.1 l 0,-5.079 c 0.729,-0.295 1.223,-0.828 1.223,-1.445 0,-0.351 -0.158,-0.677 -0.428,-0.946 C 32.621,18.828 37.002,14.773 37.002,9.891 37.003,4.438 31.537,0 24.817,0 Z m 8.475,4.035 c 1.176,1.076 2.032,2.377 2.457,3.811 C 35.593,7.563 35.38,7.338 35.164,7.2 34.878,7.037 34.596,7.096 34.393,7.241 c -0.199,0.146 -0.349,0.387 -0.412,0.645 -0.039,0.159 -0.035,0.39 0.012,0.554 0.041,0.164 0.164,0.268 0.423,0.141 -0.489,-0.209 0.041,-0.487 0.334,-0.44 0.239,0.047 0.374,0.219 0.421,0.432 0.049,0.215 0.002,0.466 -0.164,0.675 C 34.71,9.636 34.382,9.568 34.093,9.396 33.822,9.215 33.521,8.938 33.331,8.731 33.108,8.476 32.85,8.284 32.612,8.161 32.516,8.12 32.417,8.095 32.313,8.077 32.251,7.969 32.188,7.861 32.116,7.756 32.231,7.712 32.374,7.686 32.538,7.672 32.834,7.645 33.183,7.648 33.427,7.481 33.366,7.433 33.363,7.391 33.279,7.345 33.355,7.296 33.432,7.24 33.511,7.174 33.796,6.944 34.075,6.62 34.179,6.239 34.234,6.048 34.248,5.838 34.206,5.62 34.163,5.405 34.044,5.2 33.864,4.995 33.791,5.272 33.714,5.567 33.633,5.874 33.538,6.181 33.411,6.487 33.255,6.748 32.982,7.209 32.577,7.515 32.049,7.661 31.986,7.573 31.926,7.483 31.857,7.397 32.152,6.959 32.141,6.676 31.527,6.478 31.301,6.422 31.085,6.37 30.9,6.325 30.771,6.3 30.656,6.262 30.545,6.21 30.441,6.138 30.328,6.068 30.217,5.999 30.208,5.993 30.2,5.989 30.193,5.982 c 0,10e-4 0.002,0.002 0,0.003 C 29.832,5.762 29.439,5.562 29.021,5.386 29.135,5.305 29.283,5.271 29.443,5.283 29.679,5.3 29.957,5.378 30.146,5.512 30.285,5.605 30.46,5.68 30.635,5.767 30.808,5.855 31,5.932 31.205,5.994 31.542,6.131 31.949,6.2 32.302,6.209 32.664,6.208 33.033,6.106 33.321,5.782 33.509,5.568 33.592,5.269 33.573,4.918 33.547,4.639 33.445,4.336 33.292,4.035 Z m -4.2,8.235 c -0.354,0 -0.694,-0.051 -1.01,-0.141 C 27.94,11.196 27.249,10.4 26.278,9.97 c 1.084,-0.437 1.851,-1.318 1.94,-2.353 0.278,-0.066 0.57,-0.103 0.872,-0.103 1.663,0 3.016,1.066 3.016,2.378 0.003,1.311 -1.351,2.378 -3.014,2.378 z m 2.962,-0.874 c -0.035,0.078 -0.074,0.155 -0.117,0.232 -0.013,-0.013 -0.029,-0.026 -0.043,-0.039 0.055,-0.062 0.109,-0.126 0.16,-0.193 z m -7.436,3.462 c -1.636,0 -2.969,-1.035 -3.01,-2.319 0.944,-0.285 1.693,-0.894 2.053,-1.66 0.268,0.261 0.634,0.422 1.036,0.422 0.435,0 0.823,-0.188 1.095,-0.484 0.311,0.739 0.982,1.341 1.842,1.667 -0.001,1.308 -1.353,2.374 -3.016,2.374 z m 1.595,0.489 c -0.179,0.07 -0.351,0.111 -0.55,0.058 0.186,-0.015 0.368,-0.035 0.55,-0.058 z m -8.667,-3.722 c 0.004,-10e-4 0.007,-10e-4 0.01,-0.002 l -0.045,-0.098 c -0.005,0.004 -0.012,0.003 -0.019,0.005 -0.034,-0.071 -0.063,-0.146 -0.094,-0.217 0.607,0.84 1.724,1.406 3.002,1.406 0.254,0 0.5,-0.024 0.738,-0.065 0.063,0.851 0.582,1.602 1.363,2.091 -2.316,-0.465 -4.161,-1.635 -4.955,-3.12 z m 4.194,3.425 c -0.203,0.005 -0.383,-0.022 -0.54,-0.163 0.177,0.057 0.356,0.113 0.54,0.163 z M 22.447,5.264 C 21.805,5.725 21.367,6.372 21.271,7.104 20.992,7.046 20.701,7.011 20.4,7.011 19.354,7.011 18.418,7.39 17.778,7.988 18.66,6.697 20.359,5.694 22.447,5.264 Z M 18.768,6.337 C 18.821,6.24 18.87,6.15 18.913,6.081 c 0.125,-0.169 0.264,-0.302 0.488,-0.343 0.071,-0.014 0.146,0.02 0.217,0.05 -0.306,0.167 -0.586,0.354 -0.85,0.549 z m 7.904,-1.619 c 0.056,0.003 0.106,0.007 0.165,0.003 0.242,-0.023 0.479,-0.033 0.646,-0.042 0.225,-0.006 0.422,0.018 0.592,0.192 0.053,0.052 0.072,0.131 0.093,0.202 -0.475,-0.15 -0.975,-0.269 -1.496,-0.355 z m 4.771,2.911 c -0.006,0.04 0.011,0.071 0.063,0.088 0.088,0.108 0.171,0.218 0.246,0.33 -0.644,-0.617 -1.597,-1.009 -2.66,-1.009 -0.302,0 -0.595,0.035 -0.874,0.095 -0.09,-0.743 -0.529,-1.402 -1.184,-1.869 1.895,0.389 3.471,1.247 4.409,2.365 z M 27.748,7.259 C 26.875,7.558 26.186,8.14 25.841,8.862 25.568,8.534 25.16,8.32 24.698,8.32 24.277,8.32 23.899,8.496 23.628,8.776 23.275,8.079 22.593,7.52 21.741,7.229 21.858,6.003 23.158,5.034 24.74,5.033 c 0.001,0 0.002,0 0.003,0 1.596,0 2.905,0.987 3.005,2.226 z m -7.347,0.228 c 0.299,0 0.588,0.036 0.861,0.101 0.076,1.008 0.791,1.876 1.821,2.333 -1.045,0.422 -1.798,1.256 -1.932,2.244 -0.241,0.048 -0.49,0.077 -0.751,0.077 -1.661,0 -3.014,-1.067 -3.014,-2.378 0,-1.311 1.353,-2.377 3.015,-2.377 z m 7.702,5.141 c 0.313,0.076 0.646,0.118 0.989,0.118 1.111,0 2.101,-0.428 2.74,-1.09 0.021,0.021 0.034,0.046 0.05,0.071 -0.204,0.355 -0.463,0.693 -0.781,1.006 -0.203,0.022 -0.354,0.181 -0.464,0.39 -0.01,0.014 -0.019,0.028 -0.026,0.043 -1.01,0.792 -2.391,1.371 -3.965,1.636 0.838,-0.49 1.4,-1.279 1.457,-2.174 z M 31.257,2.576 C 31.15,2.573 31.041,2.581 30.939,2.605 30.33,2.739 30.23,3.429 30.464,3.879 30.624,4.144 31.026,4.634 31.237,4.1 30.731,4.293 30.954,3.712 31.196,3.559 31.595,3.318 32.048,3.633 32.104,4.147 32.163,4.619 31.895,4.815 31.569,4.902 31.248,4.978 30.839,4.975 30.544,4.949 29.892,4.893 29.374,4.889 28.903,5.337 28.743,5.274 28.584,5.212 28.42,5.155 L 28.431,5.044 C 28.428,4.684 28.406,4.421 28.286,4.264 28.171,4.105 27.954,4.056 27.569,4.16 c -0.238,0.063 -0.44,0.12 -0.65,0.185 -0.264,0.079 -0.512,0.086 -0.829,0.035 0.058,0.147 0.162,0.239 0.293,0.29 -0.528,-0.073 -1.079,-0.112 -1.641,-0.112 -0.001,0 -0.002,0 -0.003,0 -0.03,0 -0.061,0.003 -0.091,0.003 0.017,-0.21 0.177,-0.358 0.402,-0.455 0.229,-0.101 0.518,-0.146 0.758,-0.118 0.176,0.015 0.372,0.005 0.577,-0.009 0.202,-0.006 0.417,-0.029 0.632,-0.073 0.385,-0.08 0.762,-0.176 1.079,-0.39 0.313,-0.204 0.554,-0.479 0.617,-0.912 0.069,-0.445 -0.19,-0.902 -0.634,-1.262 1.149,0.276 2.219,0.698 3.178,1.234 z M 22.222,3.904 C 22.846,3.448 23.451,2.844 23.209,2.009 23.098,1.633 22.748,1.345 22.287,1.185 23.1,1.036 23.947,0.954 24.816,0.954 c 0.16,0 0.319,0.005 0.479,0.009 -0.039,0.026 -0.08,0.048 -0.114,0.077 -0.473,0.401 -0.265,1.06 0.15,1.349 0.26,0.161 0.848,0.413 0.781,-0.163 -0.354,0.41 -0.428,-0.205 -0.285,-0.455 0.238,-0.404 0.766,-0.332 1.056,0.078 0.272,0.382 0.146,0.685 -0.099,0.919 -0.242,0.225 -0.609,0.423 -0.885,0.536 -0.337,0.126 -0.632,0.27 -0.871,0.46 -0.236,0.19 -0.413,0.421 -0.514,0.801 C 22.996,4.592 21.581,4.901 20.38,5.42 20.304,5.048 20.744,4.644 21.167,4.484 21.324,4.409 21.505,4.341 21.683,4.242 21.864,4.148 22.041,4.017 22.222,3.904 Z m -4.961,-0.62 c 0.26,0.089 0.533,0.183 0.818,0.28 0.295,0.11 0.593,0.252 0.849,0.417 0.52,0.332 0.87,0.802 0.945,1.463 l 0.08,-0.221 C 19.885,5.102 19.86,4.906 19.852,4.704 19.833,4.404 19.837,4.058 19.665,3.815 19.618,3.875 19.574,3.878 19.527,3.962 19.477,3.888 19.419,3.809 19.356,3.729 19.124,3.441 18.818,3.173 18.444,3.045 18.259,2.981 18.057,2.954 17.848,2.981 c -0.09,0.013 -0.18,0.045 -0.27,0.084 0.542,-0.365 1.128,-0.689 1.751,-0.967 -0.252,0.58 0.227,1.066 0.723,1.145 0.316,0.062 0.941,0 0.642,-0.483 -0.145,0.53 -0.473,0.009 -0.454,-0.281 0.022,-0.239 0.158,-0.4 0.348,-0.468 0.19,-0.059 0.429,-0.03 0.646,0.089 0.406,0.22 0.417,0.55 0.299,0.871 -0.12,0.329 -0.38,0.621 -0.576,0.855 -0.466,0.512 -0.789,0.95 -0.685,1.637 C 20.127,5.528 19.988,5.6 19.851,5.671 L 19.75,5.572 c -0.577,-0.456 -0.905,-0.571 -1.202,0.132 -0.08,0.23 -0.134,0.435 -0.207,0.619 -0.07,0.25 -0.182,0.458 -0.382,0.664 0.015,0.004 0.025,0 0.04,0.002 -0.272,0.274 -0.508,0.566 -0.704,0.87 C 17.223,7.595 17.318,7.241 17.498,6.995 17.672,6.724 17.88,6.386 18.036,5.993 18.329,5.315 18.575,4.491 17.974,3.868 17.772,3.667 17.482,3.564 17.14,3.556 17.056,3.554 16.97,3.561 16.882,3.574 17.005,3.475 17.131,3.378 17.261,3.284 Z m -2.625,2.84 c 0.128,0.601 0.803,0.68 1.255,0.465 C 16.16,6.435 16.671,6.063 16.153,5.82 16.316,6.337 15.747,6.086 15.606,5.837 15.388,5.424 15.747,4.967 16.265,4.954 16.74,4.928 16.914,5.21 16.978,5.542 17.01,5.71 17.006,5.889 17,6.065 16.997,6.247 16.98,6.42 16.958,6.563 16.878,7.133 16.879,7.596 17.214,8 17.158,8.096 17.104,8.193 17.055,8.292 17.054,8.29 17.053,8.288 17.053,8.287 17.035,8.237 17.018,8.188 17.018,8.188 16.888,8.135 16.753,8.008 16.614,7.858 16.407,7.643 16.193,7.365 15.91,7.276 15.912,7.354 15.882,7.383 15.9,7.478 15.813,7.449 15.719,7.422 15.62,7.399 15.274,7.323 14.827,7.29 14.468,7.453 14.213,7.565 13.965,7.768 13.817,8.077 13.996,7.395 14.273,6.739 14.636,6.124 Z m -0.999,2.904 c 0.021,-0.176 0.05,-0.352 0.083,-0.524 0.254,-0.12 0.515,-0.267 0.804,-0.386 0.305,-0.12 0.616,-0.217 0.917,-0.255 0.575,-0.082 1.126,0.087 1.589,0.474 -0.033,0.07 -0.06,0.142 -0.088,0.212 -0.275,0.01 -0.489,0.044 -0.61,0.141 -0.124,0.117 -0.151,0.328 0,0.65 0.111,0.201 0.224,0.365 0.305,0.523 0.005,0.007 0.008,0.014 0.014,0.02 -0.002,0.038 -0.01,0.076 -0.01,0.115 0,0.487 0.105,0.959 0.285,1.409 -0.145,-0.144 -0.304,-0.35 -0.341,-0.551 C 16.553,10.71 16.481,10.552 16.416,10.386 16.363,10.217 16.286,10.041 16.187,9.863 16.067,9.546 15.843,9.21 15.628,8.937 15.392,8.665 15.077,8.438 14.647,8.425 14.361,8.416 14.08,8.549 13.822,8.802 13.754,8.868 13.694,8.945 13.637,9.028 Z m 0.448,3.504 c 0.283,0.157 0.563,0.1 0.762,-0.044 0.201,-0.146 0.348,-0.387 0.413,-0.646 0.039,-0.158 0.035,-0.389 -0.013,-0.553 -0.041,-0.165 -0.164,-0.268 -0.422,-0.141 0.49,0.209 -0.041,0.486 -0.334,0.441 -0.24,-0.047 -0.374,-0.22 -0.422,-0.434 -0.048,-0.214 -0.002,-0.466 0.165,-0.674 0.297,-0.388 0.625,-0.319 0.913,-0.148 0.274,0.182 0.574,0.46 0.763,0.667 0.223,0.256 0.482,0.447 0.718,0.57 0.129,0.055 0.263,0.088 0.407,0.101 0.046,0.096 0.1,0.188 0.154,0.281 -0.123,0.063 -0.293,0.092 -0.486,0.107 -0.296,0.027 -0.645,0.025 -0.89,0.192 0.062,0.046 0.065,0.089 0.15,0.134 -0.076,0.05 -0.155,0.107 -0.233,0.172 -0.285,0.23 -0.566,0.554 -0.669,0.934 -0.055,0.193 -0.068,0.402 -0.027,0.62 0.03,0.147 0.098,0.29 0.193,0.431 -0.478,-0.624 -0.865,-1.298 -1.142,-2.01 z m 1.836,1.416 c -0.189,0.215 -0.271,0.514 -0.253,0.864 0.01,0.105 0.032,0.214 0.063,0.324 -0.123,-0.133 -0.239,-0.27 -0.352,-0.408 0.071,-0.275 0.147,-0.566 0.229,-0.872 0.095,-0.307 0.221,-0.613 0.378,-0.873 0.284,-0.477 0.704,-0.787 1.259,-0.929 0.052,0.083 0.108,0.163 0.166,0.244 -0.321,0.458 -0.326,0.751 0.305,0.955 0.223,0.055 0.439,0.107 0.625,0.152 0.046,0.01 0.09,0.021 0.133,0.034 0.454,0.373 0.985,0.702 1.57,0.984 -0.076,0.019 -0.158,0.029 -0.245,0.022 -0.236,-0.017 -0.513,-0.095 -0.702,-0.229 -0.141,-0.094 -0.316,-0.168 -0.491,-0.255 -0.173,-0.088 -0.365,-0.165 -0.569,-0.227 -0.336,-0.137 -0.743,-0.205 -1.097,-0.216 -0.363,0.004 -0.732,0.107 -1.019,0.43 z m 5.155,4.371 c -1.021,-0.289 -1.976,-0.69 -2.837,-1.188 0.02,-0.005 0.041,-0.002 0.062,-0.007 0.61,-0.135 0.71,-0.824 0.475,-1.274 -0.16,-0.265 -0.564,-0.755 -0.775,-0.221 0.507,-0.193 0.285,0.388 0.043,0.541 -0.4,0.241 -0.853,-0.074 -0.908,-0.588 -0.059,-0.472 0.209,-0.667 0.534,-0.755 0.322,-0.076 0.731,-0.073 1.027,-0.047 0.591,0.051 1.071,0.058 1.508,-0.275 0.128,0.059 0.265,0.11 0.399,0.164 l -0.195,0.055 c -0.058,0.13 -0.194,0.26 -0.353,0.396 -0.229,0.202 -0.509,0.417 -0.595,0.699 0.077,-0.003 0.107,0.027 0.203,0.011 -0.028,0.086 -0.057,0.179 -0.08,0.276 -0.084,0.352 -0.114,0.77 0.004,1.15 0.122,0.372 0.408,0.687 0.898,0.828 -0.149,-0.538 -0.401,-1.177 -0.446,-1.78 -0.046,-0.617 0.112,-1.184 0.576,-1.63 0.065,0.025 0.128,0.054 0.193,0.079 0.006,0.323 0.031,0.565 0.143,0.712 0.115,0.159 0.333,0.208 0.716,0.104 0.238,-0.063 0.442,-0.12 0.651,-0.185 0.265,-0.08 0.513,-0.087 0.83,-0.035 -0.003,-0.006 -0.008,-0.01 -0.011,-0.018 0.433,0.06 0.88,0.09 1.336,0.101 -0.072,0.077 -0.171,0.142 -0.286,0.191 -0.229,0.101 -0.518,0.146 -0.759,0.118 -0.175,-0.015 -0.371,-0.005 -0.576,0.009 -0.203,0.006 -0.416,0.029 -0.632,0.073 -0.385,0.08 -0.762,0.176 -1.079,0.39 -0.313,0.204 -0.555,0.479 -0.618,0.913 -0.065,0.418 0.162,0.845 0.552,1.193 z m 4.955,-0.598 c 0.131,0.447 0.601,0.771 1.195,0.9 -0.777,0.136 -1.582,0.209 -2.41,0.209 -0.31,0 -0.615,-0.014 -0.92,-0.032 0.056,-0.034 0.114,-0.067 0.162,-0.108 0.473,-0.401 0.265,-1.059 -0.15,-1.349 -0.261,-0.16 -0.848,-0.414 -0.782,0.163 0.354,-0.411 0.428,0.205 0.285,0.454 -0.238,0.405 -0.764,0.333 -1.054,-0.077 -0.273,-0.382 -0.146,-0.685 0.096,-0.919 0.244,-0.225 0.61,-0.423 0.888,-0.535 0.336,-0.127 0.631,-0.271 0.868,-0.461 0.173,-0.141 0.313,-0.302 0.417,-0.528 0.039,0 0.077,0.004 0.116,0.004 0.172,0 0.339,-0.01 0.51,-0.017 0.312,0.645 0.542,0.868 1.155,0.41 0.189,-0.163 0.348,-0.319 0.513,-0.449 0.099,-0.07 0.194,-0.143 0.301,-0.207 0.54,-0.117 1.056,-0.273 1.539,-0.46 -0.147,0.227 -0.422,0.427 -0.688,0.526 -0.155,0.075 -0.338,0.143 -0.517,0.242 -0.18,0.094 -0.356,0.225 -0.536,0.338 -0.625,0.456 -1.229,1.061 -0.988,1.896 z m 3.677,0.216 c 0.082,-0.093 0.152,-0.19 0.201,-0.302 0.255,-0.582 -0.227,-1.069 -0.723,-1.147 -0.316,-0.062 -0.94,0 -0.641,0.483 0.143,-0.531 0.473,-0.009 0.451,0.28 -0.021,0.238 -0.158,0.4 -0.348,0.469 -0.19,0.059 -0.43,0.028 -0.646,-0.089 -0.406,-0.222 -0.418,-0.552 -0.299,-0.873 0.118,-0.328 0.381,-0.62 0.575,-0.855 0.379,-0.415 0.664,-0.783 0.701,-1.274 0.102,-0.043 0.205,-0.081 0.305,-0.126 l -0.002,0.004 c 0.068,0.123 0.093,0.317 0.102,0.52 0.02,0.3 0.016,0.646 0.188,0.89 0.048,-0.061 0.091,-0.065 0.138,-0.148 0.051,0.075 0.108,0.155 0.172,0.233 0.231,0.289 0.539,0.557 0.911,0.686 0.188,0.063 0.389,0.089 0.598,0.063 0.207,-0.031 0.415,-0.132 0.62,-0.291 -0.269,-0.093 -0.555,-0.191 -0.853,-0.293 -0.295,-0.11 -0.592,-0.252 -0.85,-0.416 -0.474,-0.305 -0.797,-0.731 -0.908,-1.305 0.096,-0.045 0.189,-0.094 0.281,-0.143 0.461,0.326 0.746,0.344 1.01,-0.276 0.058,-0.165 0.104,-0.313 0.149,-0.456 0.345,-0.266 0.651,-0.555 0.916,-0.861 -0.006,0.009 -0.011,0.02 -0.017,0.027 -0.174,0.27 -0.383,0.609 -0.539,1.002 -0.295,0.677 -0.539,1.501 0.062,2.124 0.203,0.201 0.493,0.304 0.836,0.313 0.309,0.004 0.651,-0.098 0.995,-0.251 -0.951,0.828 -2.099,1.514 -3.385,2.012 z m 4.907,-4.293 c -0.104,-0.64 -0.805,-0.723 -1.267,-0.504 -0.27,0.156 -0.78,0.526 -0.263,0.771 -0.162,-0.518 0.406,-0.267 0.547,-0.017 0.219,0.412 -0.141,0.869 -0.659,0.882 -0.475,0.026 -0.647,-0.256 -0.712,-0.588 -0.031,-0.168 -0.027,-0.347 -0.021,-0.523 0.002,-0.182 0.02,-0.354 0.041,-0.498 0.059,-0.415 0.074,-0.772 -0.051,-1.095 0.077,-0.125 0.146,-0.254 0.211,-0.384 0.061,0.054 0.123,0.115 0.186,0.184 0.206,0.216 0.42,0.493 0.703,0.582 -0.004,-0.077 0.027,-0.106 0.011,-0.2 0.086,0.027 0.181,0.055 0.276,0.076 0.348,0.076 0.795,0.11 1.154,-0.053 0.36,-0.159 0.713,-0.493 0.774,-1.064 -0.263,0.122 -0.531,0.276 -0.83,0.398 -0.306,0.121 -0.616,0.217 -0.917,0.256 -0.463,0.066 -0.912,-0.03 -1.312,-0.271 0.067,-0.149 0.127,-0.301 0.176,-0.455 0.099,-0.022 0.186,-0.053 0.244,-0.101 0.123,-0.118 0.151,-0.327 0,-0.649 -0.027,-0.051 -0.053,-0.094 -0.082,-0.14 0.007,-0.084 0.02,-0.166 0.02,-0.251 0,-0.317 -0.049,-0.627 -0.127,-0.93 0.032,0.089 0.07,0.178 0.105,0.272 0.054,0.169 0.131,0.345 0.229,0.522 0.12,0.319 0.344,0.655 0.561,0.929 0.235,0.272 0.551,0.498 0.98,0.512 0.285,0.009 0.566,-0.124 0.824,-0.378 0.255,-0.251 0.424,-0.631 0.561,-1.062 C 36,9.734 36.021,9.598 36.033,9.46 c 0.01,0.144 0.016,0.287 0.016,0.432 0,1.629 -0.555,3.156 -1.514,4.473 0.087,-0.247 0.123,-0.494 0.08,-0.721 z"
         id="path19"
         inkscape:connector-curvature="0" /></g></g><g
     id="g21" /><g
     id="g23" /><g
     id="g25" /><g
     id="g27" /><g
     id="g29" /><g
     id="g31" /><g
     id="g33" /><g
     id="g35" /><g
     id="g37" /><g
     id="g39" /><g
     id="g41" /><g
     id="g43" /><g
     id="g45" /><g
     id="g47" /><g
     id="g49" /></svg>